<svg xmlns="http://www.w3.org/2000/svg" viewBox="0 0 760 760" fill="var(--accent,#6d56eb)" fill-rule="evenodd">
  <path fill-opacity="0.45" d="M42 653 45 657 57 661ZM34 637 34 645 39 650ZM484 619 472 627 480 626ZM367 614 365 608 364 616 355 618 346 609 349 616 355 620 361 620ZM227 602 208 598 134 672 139 671 210 600 224 604ZM603 590 574 602 599 594ZM257 578 249 583 256 583ZM588 569 562 579 586 572ZM463 564 460 564 454 581ZM407 548 410 555 418 557ZM262 548 259 547 230 578 235 580 233 577 260 550 263 552ZM631 544 591 569 614 558ZM442 530 424 540 429 542 430 538ZM387 527 396 536 408 540ZM382 513 387 522 385 514ZM371 506 380 511 377 507ZM300 506 272 536 282 555 318 578 285 555 275 537 302 508ZM74 456 83 484 87 488ZM719 455 708 483 713 476ZM130 454 133 458 141 460ZM695 447 686 470 689 468ZM121 440 123 448 127 451ZM130 417 124 422 121 432ZM588 400 612 412 606 406ZM573 400 555 406 545 416ZM666 310 675 332 669 312ZM388 257 362 265 355 270ZM649 301 620 264 615 262 604 272 574 248 558 239 546 237 532 248 506 239 478 237 473 248 491 253 510 264 523 277 534 295 540 328 537 345 528 365 500 397 478 413 422 439 352 455 315 494 377 495 392 505 400 523 409 527 429 525 534 410 550 396 567 389 589 388 614 397 626 377 648 387 668 380 665 345ZM638 348 645 350 650 356 648 366 640 371 634 369 628 361 629 355ZM110 217 106 221 99 243ZM85 211 80 218 72 247ZM705 205 721 248 712 216ZM112 165 106 170 95 189ZM680 164 701 195 691 176ZM592 126 625 146 613 136ZM579 94 604 105 600 101ZM221 92 188 103 169 115Z"/>
  <path fill-opacity="0.72" d="M36 646 38 651 46 656ZM255 608 256 612 271 625ZM404 577 409 584 408 579ZM646 564 622 581 641 570ZM196 592 172 581 134 555 49 640 49 643 61 649 89 647 98 657 109 661 131 660 196 595ZM476 550 513 575 519 582 516 575ZM431 536 426 537 426 542ZM401 536 407 540 407 549 410 552 409 538ZM272 535 283 556 315 576 283 554ZM326 521 326 525 332 527ZM441 513 421 526 411 526 400 519 398 522 407 527 421 528 433 523ZM376 494 387 500 399 517 393 503ZM685 476 665 509 675 497ZM332 457 231 459 153 538 184 561 217 574ZM374 493 318 492 356 456 352 454 314 492 314 495ZM123 445 129 455 138 459ZM599 403 611 412 630 438 613 411ZM668 393 658 397 664 440 667 434ZM505 393 490 405 453 426 411 442 370 453 404 446 445 432 480 414ZM630 391 623 408 646 440 653 445 646 399ZM568 388 548 395 533 410 541 402ZM626 376 621 378 612 396 596 388 593 390 614 398ZM669 372 666 379 652 386 631 376 629 378 653 388 667 381ZM539 340 525 370 514 384 529 367ZM629 275 648 303 665 346 659 322 649 300 634 278ZM521 274 533 294 540 315 535 293ZM593 264 600 272 608 272ZM524 301 507 276 488 264 473 260 418 263 370 276 317 303 135 429 134 440 141 447 316 447 367 441 427 425 470 405 495 387 512 369 523 350 527 336 528 320ZM482 249 514 267 505 258ZM505 239 532 249 525 244ZM547 236 565 244 590 262 570 245ZM490 236 478 236 473 249 480 238ZM535 232 529 235 534 235Z"/>
  <path fill-opacity="1" d="M106 171 83 212 69 263 68 423 74 456 84 485 97 510 125 547 34 638 35 646 46 657 66 662 84 661 104 673 138 671 210 599 254 608 271 626 283 623 282 609 346 609 354 619 362 619 367 609 454 609 469 625 479 626 483 622 481 609 556 606 587 598 622 582 660 554 682 530 697 508 717 462 725 419 725 275 722 253 708 208 686 170 656 137 621 112 579 94 537 86 255 86 217 93 170 113 139 135ZM194 594 129 659 111 660 100 656 91 646 63 648 51 642 135 557 165 579ZM260 549 265 560 255 581 234 579 232 577ZM331 508 377 509 384 516 387 528 408 540 408 551 411 555 460 565 455 582 409 583 377 546 328 524ZM302 507 313 508 308 526 311 536 356 557 347 568 342 583 320 583 316 575 281 551 274 535ZM328 460 215 573 186 560 155 537 233 460ZM666 395 665 433 659 399ZM631 393 645 401 650 441 624 406ZM523 303 527 322 525 339 517 358 507 372 487 391 468 404 425 424 365 440 314 446 143 446 135 438 135 433 140 427 316 306 372 277 420 264 471 261 486 265 505 277ZM648 302 661 333 668 377 651 387 625 376 613 395 587 387 567 388 549 395 539 402 428 524 413 527 399 520 394 505 377 494 316 493 354 455 406 445 455 427 495 403 526 371 535 354 540 335 540 314 536 297 528 281 515 266 492 252 474 247 480 237 506 240 531 249 538 248 548 238 552 238 574 250 601 272 607 272 617 264 633 280ZM127 187 152 159 183 136 212 122 254 112 528 111 565 117 601 131 635 154 665 186 686 223 696 255 700 285 700 410 692 455 677 490 655 521 623 550 594 567 555 580 520 583 517 576 477 550 427 540 440 533 542 420 562 404 584 400 609 410 637 449 661 472 671 469 678 448 681 369 677 340 665 304 641 267 618 247 612 248 604 256 574 233 556 225 542 224 531 234 505 226 472 224 458 247 428 249 388 257 329 281 130 416 123 425 121 439 125 450 131 456 141 460 211 461 144 527 126 506 111 481 99 449 93 414 95 264 108 220Z"/>
</svg>
